<svg xmlns="http://www.w3.org/2000/svg" viewBox="0 0 512 512">
    <path d="M175.445 336.555c-5-5.009-13.099-5.009-18.099 0L25.6 468.301V396.8c0-7.074-5.726-12.8-12.8-12.8C5.726 384 0 389.726 0 396.8v102.4c0 7.074 5.726 12.8 12.8 12.8h102.4c7.074 0 12.8-5.726 12.8-12.8 0-7.074-5.726-12.8-12.8-12.8H43.699l131.746-131.746c5.001-5.001 5.001-13.099 0-18.099zM499.2 0H396.8C389.726 0 384 5.726 384 12.8c0 7.074 5.726 12.8 12.8 12.8h71.492L336.555 157.346c-5.001 5.001-5.001 13.099 0 18.099 5 5.001 13.099 5.001 18.099 0L486.4 43.699V115.2c0 7.074 5.726 12.8 12.8 12.8 7.074 0 12.8-5.726 12.8-12.8V12.8C512 5.726 506.274 0 499.2 0z"/>
</svg>