<svg xmlns="http://www.w3.org/2000/svg" viewBox="0 0 511.998 511.998">
    <path d="M508.241 3.754c-5-5-13.099-5-18.099 0L358.396 135.5V63.999c0-7.074-5.726-12.8-12.8-12.8-7.074 0-12.8 5.726-12.8 12.8v102.4c0 7.074 5.726 12.8 12.8 12.8h102.4c7.074 0 12.8-5.726 12.8-12.8 0-7.074-5.726-12.8-12.8-12.8h-71.492L508.241 21.853c5.009-5.001 5.009-13.099 0-18.099zM166.396 332.799h-102.4c-7.074 0-12.8 5.726-12.8 12.8 0 7.074 5.726 12.8 12.8 12.8h71.492L3.75 490.145c-5 5-5 13.099 0 18.099 5.001 5 13.099 5 18.099 0l131.746-131.746v71.501c0 7.074 5.726 12.8 12.8 12.8 7.074 0 12.8-5.726 12.8-12.8v-102.4c.001-7.074-5.725-12.8-12.799-12.8z"/>
</svg>